<svg width="20" height="22" viewBox="0 0 20 22" fill="none" xmlns="http://www.w3.org/2000/svg">
<path d="M9.77503 17.7717L13.1404 15.7444L13.2138 15.7002C14.6471 14.8369 15.8217 14.1294 16.6277 13.4618C17.4604 12.772 18.1116 11.954 18.1116 10.8333C18.1116 9.71271 17.4604 8.89464 16.6277 8.20489C15.8217 7.5373 14.6471 6.8298 13.2138 5.96646L13.1404 5.92225L9.77502 3.89501L9.69976 3.84967C8.26809 2.98721 7.09315 2.2794 6.13448 1.88428C5.14973 1.47841 4.10749 1.28139 3.13406 1.86777C2.17655 2.44455 1.8311 3.45355 1.67846 4.52626C1.52819 5.5823 1.52822 6.99168 1.52826 8.72338L1.52826 8.80609L1.52826 12.8606L1.52826 12.9433C1.52822 14.675 1.52819 16.0844 1.67846 17.1404C1.8311 18.2131 2.17655 19.2221 3.13406 19.7989C4.10749 20.3853 5.14973 20.1883 6.13448 19.7824C7.09315 19.3873 8.2681 18.6795 9.69978 17.817L9.77503 17.7717Z" stroke="white" stroke-width="2" stroke-linecap="round" stroke-linejoin="round"/>
</svg>
